<?xml version="1.0" encoding="iso-8859-1"?>
<!-- Generator: Adobe Illustrator 19.0.0, SVG Export Plug-In . SVG Version: 6.00 Build 0)  -->
<svg version="1.1" id="Layer_1" xmlns="http://www.w3.org/2000/svg" xmlns:xlink="http://www.w3.org/1999/xlink" x="0px" y="0px"
	 viewBox="0 0 512.001 512.001" style="enable-background:new 0 0 512.001 512.001;" xml:space="preserve">
<g>
	<g>
		<path d="M179.799,188.548c-11.292,0-20.481,9.231-20.481,20.631c0,11.397,9.189,20.637,20.481,20.637
			c11.306,0,20.494-9.24,20.494-20.637C200.292,197.779,191.105,188.548,179.799,188.548z"/>
	</g>
</g>
<g>
	<g>
		<path d="M332.202,188.548c-11.306,0-20.494,9.231-20.494,20.631c0,11.397,9.188,20.637,20.494,20.637
			c11.292,0,20.481-9.24,20.481-20.637C352.683,197.779,343.494,188.548,332.202,188.548z"/>
	</g>
</g>
<g>
	<g>
		<path d="M494.858,79.473c-13.638-18.373-33.552-30.316-56.076-33.629c-30.212-4.441-60.507,7.986-79.449,31.528
			c-28.022-10.925-62.33-16.325-103.331-16.325c-41.002,0-75.309,5.4-103.331,16.324c-18.943-23.542-49.238-35.97-79.452-31.527
			c-22.523,3.313-42.438,15.256-56.076,33.629C3.272,98.159-2.469,121.209,0.976,144.377c4.767,32.057,26.28,58.125,55.484,68.975
			c-2.993,22.508-3.711,45.907-3.711,68.999c0,58.066,19.72,105.863,57.028,138.222c32.058,27.806,76.59,43.732,129.528,46.474
			v-91.593c-20.223-9.533-39.921-33.401-39.921-52.423c0-32.038,35.441-32.038,56.616-32.038s56.616,0,56.616,32.038
			c0,19.021-19.698,42.889-39.921,52.423v91.593c52.938-2.742,97.47-18.668,129.528-46.474
			c37.309-32.359,57.028-80.157,57.028-138.222c0-23.093-0.718-46.491-3.711-68.999c29.204-10.849,50.717-36.918,55.484-68.974
			C514.47,121.209,508.728,98.159,494.858,79.473z M219.019,248.242c-16.021,15.93-36.224,24.262-54.585,24.262
			c-13.316,0-25.66-4.379-34.749-13.416c-8.906-8.857-13.614-20.848-13.614-34.677c0-19.007,8.938-38.794,24.522-54.291
			c27.637-27.483,67.712-32.349,89.334-10.846c8.906,8.857,13.614,20.848,13.614,34.677
			C243.539,212.957,234.602,232.745,219.019,248.242z M382.317,259.089c-9.088,9.036-21.435,13.416-34.749,13.416
			c-18.363,0-38.563-8.33-54.585-24.262c-15.583-15.497-24.521-35.285-24.521-54.291c0-13.829,4.708-25.819,13.614-34.677
			c21.622-21.502,61.696-16.636,89.334,10.846c15.583,15.497,24.521,35.284,24.522,54.291
			C395.931,238.241,391.223,250.231,382.317,259.089z"/>
	</g>
</g>
<g>
</g>
<g>
</g>
<g>
</g>
<g>
</g>
<g>
</g>
<g>
</g>
<g>
</g>
<g>
</g>
<g>
</g>
<g>
</g>
<g>
</g>
<g>
</g>
<g>
</g>
<g>
</g>
<g>
</g>
</svg>
